<svg width="24" height="24" viewBox="0 0 24 24" fill="none" xmlns="http://www.w3.org/2000/svg">
<path fill-rule="evenodd" clip-rule="evenodd" d="M11.1548 3.40039H12.8451C14.3153 3.40038 15.4798 3.40037 16.3912 3.5229C17.3291 3.649 18.0883 3.91469 18.687 4.51339C18.9213 4.7477 18.9213 5.1276 18.687 5.36191C18.4526 5.59623 18.0727 5.59623 17.8384 5.36191C17.4999 5.02335 17.0361 4.82041 16.2313 4.7122C15.4091 4.60167 14.3254 4.60039 12.8 4.60039H11.2C9.6745 4.60039 8.59076 4.60167 7.76863 4.7122C6.96376 4.82041 6.50004 5.02335 6.16147 5.36191C5.82291 5.70048 5.61997 6.1642 5.51176 6.96907C5.40123 7.7912 5.39995 8.87493 5.39995 10.4004V13.6004C5.39995 15.1258 5.40123 16.2096 5.51176 17.0317C5.61997 17.8366 5.82291 18.3003 6.16147 18.6389C6.50004 18.9774 6.96376 19.1804 7.76863 19.2886C8.59076 19.3991 9.6745 19.4004 11.2 19.4004H12.8C14.3254 19.4004 15.4091 19.3991 16.2313 19.2886C17.0361 19.1804 17.4999 18.9774 17.8384 18.6389C18.3952 18.0821 18.5638 17.217 18.5931 15.1917C18.5979 14.8604 18.8703 14.5957 19.2017 14.6005C19.533 14.6052 19.7977 14.8777 19.7929 15.2091C19.7648 17.151 19.6391 18.5352 18.687 19.4874C18.0883 20.0861 17.3291 20.3518 16.3912 20.4779C15.4798 20.6004 14.3153 20.6004 12.8451 20.6004H11.1548C9.68461 20.6004 8.52011 20.6004 7.60873 20.4779C6.6708 20.3518 5.91164 20.0861 5.31295 19.4874C4.71426 18.8887 4.44856 18.1295 4.32246 17.1916C4.19993 16.2802 4.19994 15.1157 4.19995 13.6455V10.3553C4.19994 8.88505 4.19993 7.72054 4.32246 6.80917C4.44856 5.87123 4.71426 5.11208 5.31295 4.51339C5.91164 3.91469 6.6708 3.649 7.60873 3.5229C8.5201 3.40037 9.68461 3.40038 11.1548 3.40039ZM16.8905 8.03684C17.7391 7.18824 19.1149 7.18824 19.9635 8.03684C20.8121 8.88543 20.8121 10.2613 19.9635 11.1099L16.1593 14.9141C15.9523 15.1212 15.8123 15.2612 15.6554 15.3835C15.4709 15.5274 15.2713 15.6508 15.0601 15.7515C14.8805 15.8371 14.6926 15.8997 14.4149 15.9922L12.748 16.5478C12.38 16.6705 11.9743 16.5747 11.6999 16.3004C11.4256 16.0261 11.3298 15.6203 11.4525 15.2523L11.997 13.619C12.0007 13.6077 12.0045 13.5965 12.0081 13.5854C12.1007 13.3077 12.1633 13.1198 12.2489 12.9403C12.3495 12.729 12.4729 12.5294 12.6168 12.3449C12.7391 12.1881 12.8792 12.0481 13.0862 11.8411C13.0944 11.8329 13.1028 11.8245 13.1112 11.8161L16.8905 8.03684ZM19.115 8.88537C18.735 8.5054 18.119 8.5054 17.739 8.88537L17.5936 9.03079C17.6015 9.05758 17.6105 9.08607 17.6209 9.11601C17.6962 9.33291 17.839 9.61981 18.1097 9.8906C18.3805 10.1614 18.6674 10.3042 18.8843 10.3794C18.9143 10.3898 18.9428 10.3989 18.9696 10.4068L19.115 10.2613C19.4949 9.88138 19.4949 9.26533 19.115 8.88537ZM18.0531 11.3232C17.7988 11.1897 17.5242 11.0021 17.2612 10.7391C16.9982 10.4761 16.8107 10.2016 16.6771 9.94725L13.9597 12.6646C13.7189 12.9055 13.6344 12.9915 13.563 13.0829C13.4727 13.1987 13.3953 13.324 13.3321 13.4565C13.2822 13.5613 13.2431 13.6753 13.1354 13.9985L12.8151 14.9592L13.0412 15.1852L14.0019 14.865C14.325 14.7572 14.4391 14.7181 14.5438 14.6682C14.6764 14.6051 14.8016 14.5276 14.9174 14.4373C15.0089 14.366 15.0949 14.2815 15.3357 14.0406L18.0531 11.3232ZM8.19995 9.60039C8.19995 9.26902 8.46858 9.00039 8.79995 9.00039H14C14.3313 9.00039 14.6 9.26902 14.6 9.60039C14.6 9.93176 14.3313 10.2004 14 10.2004H8.79995C8.46858 10.2004 8.19995 9.93176 8.19995 9.60039ZM8.19995 12.8004C8.19995 12.469 8.46858 12.2004 8.79995 12.2004H10.8C11.1313 12.2004 11.4 12.469 11.4 12.8004C11.4 13.1318 11.1313 13.4004 10.8 13.4004H8.79995C8.46858 13.4004 8.19995 13.1318 8.19995 12.8004ZM8.19995 16.0004C8.19995 15.669 8.46858 15.4004 8.79995 15.4004H9.99995C10.3313 15.4004 10.6 15.669 10.6 16.0004C10.6 16.3318 10.3313 16.6004 9.99995 16.6004H8.79995C8.46858 16.6004 8.19995 16.3318 8.19995 16.0004Z" fill="#232323"/>
</svg>
