<svg width="24" height="24" viewBox="0 0 24 24" fill="none" xmlns="http://www.w3.org/2000/svg">
<path d="M12.5999 9.60039C12.5999 9.26902 12.3313 9.00039 11.9999 9.00039C11.6685 9.00039 11.3999 9.26902 11.3999 9.60039L11.3999 11.4004H9.5999C9.26853 11.4004 8.9999 11.669 8.9999 12.0004C8.9999 12.3318 9.26853 12.6004 9.5999 12.6004H11.3999V14.4004C11.3999 14.7318 11.6685 15.0004 11.9999 15.0004C12.3313 15.0004 12.5999 14.7318 12.5999 14.4004V12.6004H14.3999C14.7313 12.6004 14.9999 12.3318 14.9999 12.0004C14.9999 11.669 14.7313 11.4004 14.3999 11.4004H12.5999V9.60039Z" fill="#232323"/>
<path fill-rule="evenodd" clip-rule="evenodd" d="M12.0458 3.40039H11.954C10.1073 3.40038 8.66005 3.40037 7.53087 3.55219C6.37508 3.70758 5.46306 4.03185 4.74721 4.7477C4.03136 5.46355 3.70709 6.37557 3.5517 7.53136C3.39988 8.66054 3.39989 10.1078 3.3999 11.9545V12.0463C3.39989 13.893 3.39988 15.3402 3.5517 16.4694C3.70709 17.6252 4.03136 18.5372 4.74721 19.2531C5.46306 19.9689 6.37508 20.2932 7.53087 20.4486C8.66006 20.6004 10.1073 20.6004 11.954 20.6004H12.0458C13.8925 20.6004 15.3397 20.6004 16.4689 20.4486C17.6247 20.2932 18.5367 19.9689 19.2526 19.2531C19.9684 18.5372 20.2927 17.6252 20.4481 16.4694C20.5999 15.3402 20.5999 13.893 20.5999 12.0463V11.9545C20.5999 10.1078 20.5999 8.66055 20.4481 7.53136C20.2927 6.37557 19.9684 5.46355 19.2526 4.7477C18.5367 4.03185 17.6247 3.70758 16.4689 3.55219C15.3398 3.40037 13.8925 3.40038 12.0458 3.40039ZM5.59574 5.59623C6.05146 5.1405 6.66804 4.87899 7.69076 4.74149C8.73075 4.60167 10.0973 4.60039 11.9999 4.60039C13.9025 4.60039 15.2691 4.60167 16.309 4.74149C17.3318 4.87899 17.9483 5.1405 18.4041 5.59623C18.8598 6.05195 19.1213 6.66853 19.2588 7.69125C19.3986 8.73124 19.3999 10.0978 19.3999 12.0004C19.3999 13.903 19.3986 15.2695 19.2588 16.3095C19.1213 17.3323 18.8598 17.9488 18.4041 18.4046C17.9483 18.8603 17.3318 19.1218 16.309 19.2593C15.2691 19.3991 13.9025 19.4004 11.9999 19.4004C10.0973 19.4004 8.73075 19.3991 7.69076 19.2593C6.66804 19.1218 6.05146 18.8603 5.59574 18.4046C5.14002 17.9488 4.8785 17.3323 4.741 16.3095C4.60118 15.2695 4.5999 13.903 4.5999 12.0004C4.5999 10.0978 4.60118 8.73124 4.741 7.69125C4.8785 6.66853 5.14002 6.05195 5.59574 5.59623Z" fill="#232323"/>
</svg>
