<svg width="24" height="24" viewBox="0 0 24 24" fill="none" xmlns="http://www.w3.org/2000/svg">
<path d="M15.9999 13.5998C16.4417 13.5998 16.7999 13.2416 16.7999 12.7998C16.7999 12.358 16.4417 11.9998 15.9999 11.9998C15.5581 11.9998 15.1999 12.358 15.1999 12.7998C15.1999 13.2416 15.5581 13.5998 15.9999 13.5998Z" fill="#232323"/>
<path d="M15.9999 16.7998C16.4417 16.7998 16.7999 16.4416 16.7999 15.9998C16.7999 15.558 16.4417 15.1998 15.9999 15.1998C15.5581 15.1998 15.1999 15.558 15.1999 15.9998C15.1999 16.4416 15.5581 16.7998 15.9999 16.7998Z" fill="#232323"/>
<path d="M12.7999 12.7998C12.7999 13.2416 12.4417 13.5998 11.9999 13.5998C11.5581 13.5998 11.1999 13.2416 11.1999 12.7998C11.1999 12.358 11.5581 11.9998 11.9999 11.9998C12.4417 11.9998 12.7999 12.358 12.7999 12.7998Z" fill="#232323"/>
<path d="M12.7999 15.9998C12.7999 16.4416 12.4417 16.7998 11.9999 16.7998C11.5581 16.7998 11.1999 16.4416 11.1999 15.9998C11.1999 15.558 11.5581 15.1998 11.9999 15.1998C12.4417 15.1998 12.7999 15.558 12.7999 15.9998Z" fill="#232323"/>
<path d="M7.9999 13.5998C8.44173 13.5998 8.7999 13.2416 8.7999 12.7998C8.7999 12.358 8.44173 11.9998 7.9999 11.9998C7.55808 11.9998 7.1999 12.358 7.1999 12.7998C7.1999 13.2416 7.55808 13.5998 7.9999 13.5998Z" fill="#232323"/>
<path d="M7.9999 16.7998C8.44173 16.7998 8.7999 16.4416 8.7999 15.9998C8.7999 15.558 8.44173 15.1998 7.9999 15.1998C7.55808 15.1998 7.1999 15.558 7.1999 15.9998C7.1999 16.4416 7.55808 16.7998 7.9999 16.7998Z" fill="#232323"/>
<path fill-rule="evenodd" clip-rule="evenodd" d="M7.9999 3.7998C8.33127 3.7998 8.5999 4.06843 8.5999 4.3998V5.00998C9.1295 4.99979 9.71297 4.9998 10.3547 4.9998H13.645C14.2868 4.9998 14.8703 4.99979 15.3999 5.00998V4.3998C15.3999 4.06843 15.6685 3.7998 15.9999 3.7998C16.3313 3.7998 16.5999 4.06843 16.5999 4.3998V5.06147C16.8079 5.07733 17.0048 5.09726 17.1911 5.12231C18.1291 5.24841 18.8882 5.51411 19.4869 6.1128C20.0856 6.71149 20.3513 7.47065 20.4774 8.40859C20.5999 9.31995 20.5999 10.4844 20.5999 11.9546V13.6449C20.5999 15.1151 20.5999 16.2797 20.4774 17.191C20.3513 18.129 20.0856 18.8881 19.4869 19.4868C18.8882 20.0855 18.1291 20.3512 17.1911 20.4773C16.2798 20.5998 15.1153 20.5998 13.6451 20.5998H10.3548C8.88458 20.5998 7.72005 20.5998 6.80868 20.4773C5.87075 20.3512 5.11159 20.0855 4.5129 19.4868C3.91421 18.8881 3.64851 18.129 3.52241 17.191C3.39988 16.2797 3.39989 15.1151 3.3999 13.6449V11.9547C3.39989 10.4845 3.39988 9.31996 3.52241 8.40859C3.64851 7.47065 3.91421 6.71149 4.5129 6.1128C5.11159 5.51411 5.87075 5.24841 6.80868 5.12231C6.99503 5.09726 7.19195 5.07733 7.3999 5.06147V4.3998C7.3999 4.06843 7.66853 3.7998 7.9999 3.7998ZM6.96858 6.31161C6.16371 6.41982 5.69999 6.62276 5.36143 6.96133C5.02286 7.29989 4.81992 7.76361 4.71171 8.56848C4.69338 8.70479 4.67806 8.84829 4.66525 8.9998H19.3346C19.3217 8.84829 19.3064 8.70479 19.2881 8.56848C19.1799 7.76361 18.9769 7.29989 18.6384 6.96133C18.2998 6.62276 17.8361 6.41982 17.0312 6.31161C16.2091 6.20108 15.1254 6.1998 13.5999 6.1998H10.3999C8.87445 6.1998 7.79071 6.20108 6.96858 6.31161ZM4.5999 11.9998C4.5999 11.3166 4.60016 10.722 4.61037 10.1998H19.3894C19.3996 10.722 19.3999 11.3166 19.3999 11.9998V13.5998C19.3999 15.1253 19.3986 16.209 19.2881 17.0311C19.1799 17.836 18.9769 18.2997 18.6384 18.6383C18.2998 18.9768 17.8361 19.1798 17.0312 19.288C16.2091 19.3985 15.1254 19.3998 13.5999 19.3998H10.3999C8.87445 19.3998 7.79071 19.3985 6.96858 19.288C6.16371 19.1798 5.69999 18.9768 5.36143 18.6383C5.02286 18.2997 4.81992 17.836 4.71171 17.0311C4.60118 16.209 4.5999 15.1253 4.5999 13.5998V11.9998Z" fill="#232323"/>
</svg>
