<svg width="24" height="24" viewBox="0 0 24 24" fill="none" xmlns="http://www.w3.org/2000/svg">
<path d="M10.4241 9.57613C10.1898 9.34181 9.80993 9.34181 9.57561 9.57613C9.3413 9.81044 9.3413 10.1903 9.57561 10.4247L11.1514 12.0004L9.57563 13.5761C9.34132 13.8104 9.34132 14.1903 9.57563 14.4247C9.80995 14.659 10.1898 14.659 10.4242 14.4247L11.9999 12.8489L13.5756 14.4246C13.8099 14.659 14.1898 14.659 14.4241 14.4246C14.6584 14.1903 14.6584 13.8104 14.4241 13.5761L12.8484 12.0004L14.4241 10.4247C14.6585 10.1904 14.6585 9.81046 14.4241 9.57614C14.1898 9.34183 13.8099 9.34183 13.5756 9.57614L11.9999 11.1519L10.4241 9.57613Z" fill="#232323"/>
</svg>
