<svg width="24" height="24" viewBox="0 0 24 24" fill="none" xmlns="http://www.w3.org/2000/svg">
<path fill-rule="evenodd" clip-rule="evenodd" d="M12 4.2002C13.215 4.2002 14.2 5.18517 14.2 6.4002C14.2 7.61522 13.215 8.6002 12 8.6002C10.7849 8.6002 9.79995 7.61522 9.79995 6.4002C9.79995 5.18517 10.7849 4.2002 12 4.2002ZM13 6.4002C13 5.84791 12.5522 5.4002 12 5.4002C11.4477 5.4002 11 5.84791 11 6.4002C11 6.95248 11.4477 7.4002 12 7.4002C12.5522 7.4002 13 6.95248 13 6.4002Z" fill="#232323"/>
<path fill-rule="evenodd" clip-rule="evenodd" d="M12 9.8002C13.215 9.8002 14.2 10.7852 14.2 12.0002C14.2 13.2152 13.215 14.2002 12 14.2002C10.7849 14.2002 9.79995 13.2152 9.79995 12.0002C9.79995 10.7852 10.7849 9.8002 12 9.8002ZM13 12.0002C13 11.4479 12.5522 11.0002 12 11.0002C11.4477 11.0002 11 11.4479 11 12.0002C11 12.5525 11.4477 13.0002 12 13.0002C12.5522 13.0002 13 12.5525 13 12.0002Z" fill="#232323"/>
<path fill-rule="evenodd" clip-rule="evenodd" d="M14.2 17.6002C14.2 16.3852 13.215 15.4002 12 15.4002C10.7849 15.4002 9.79995 16.3852 9.79995 17.6002C9.79995 18.8152 10.7849 19.8002 12 19.8002C13.215 19.8002 14.2 18.8152 14.2 17.6002ZM12 16.6002C12.5522 16.6002 13 17.0479 13 17.6002C13 18.1525 12.5522 18.6002 12 18.6002C11.4477 18.6002 11 18.1525 11 17.6002C11 17.0479 11.4477 16.6002 12 16.6002Z" fill="#232323"/>
</svg>
