<svg width="24" height="24" viewBox="0 0 24 24" fill="none" xmlns="http://www.w3.org/2000/svg">
<path fill-rule="evenodd" clip-rule="evenodd" d="M14.2052 4.49755C15.6681 3.03467 18.0399 3.03467 19.5028 4.49755C20.9656 5.96043 20.9656 8.33222 19.5028 9.7951L11.9145 17.3833C11.481 17.8169 11.2258 18.0721 10.9419 18.2936C10.6072 18.5546 10.2451 18.7784 9.86203 18.9609C9.53699 19.1159 9.19457 19.23 8.61289 19.4239L5.94799 20.3122L5.30633 20.526C4.78588 20.6995 4.21208 20.5641 3.82416 20.1761C3.43624 19.7882 3.30078 19.2144 3.47427 18.694L4.57645 15.3874C4.77032 14.8057 4.88445 14.4633 5.03936 14.1383C5.22194 13.7552 5.44572 13.3931 5.70673 13.0584C5.92818 12.7745 6.18341 12.5193 6.617 12.0858L14.2052 4.49755ZM5.92031 19.0565L8.19353 18.2987C8.82642 18.0878 9.09532 17.997 9.34577 17.8777C9.6502 17.7326 9.93792 17.5548 10.2038 17.3474C10.4226 17.1767 10.624 16.9768 11.0957 16.5051L17.1513 10.4495C16.5204 10.227 15.7076 9.81449 14.9467 9.0536C14.1858 8.2927 13.7733 7.4799 13.5508 6.84899L7.49524 12.9046C7.02351 13.3763 6.82357 13.5777 6.65294 13.7965C6.44553 14.0624 6.26771 14.3501 6.12263 14.6545C6.00327 14.905 5.91254 15.1739 5.70158 15.8068L4.94384 18.08L5.92031 19.0565ZM14.5242 5.87563C14.5515 6.01559 14.5978 6.20586 14.675 6.42829C14.8487 6.92905 15.1769 7.5867 15.7952 8.20507C16.4136 8.82344 17.0713 9.15162 17.572 9.32535C17.7944 9.40252 17.9847 9.44876 18.1247 9.47612L18.6542 8.94657C19.6485 7.95232 19.6485 6.34033 18.6542 5.34608C17.66 4.35183 16.048 4.35183 15.0537 5.34608L14.5242 5.87563Z" fill="#232323"/>
</svg>
