<svg width="24" height="24" viewBox="0 0 24 24" fill="none" xmlns="http://www.w3.org/2000/svg">
<path fill-rule="evenodd" clip-rule="evenodd" d="M11.5999 4.60039C7.73391 4.60039 4.5999 7.7344 4.5999 11.6004C4.5999 15.4664 7.73391 18.6004 11.5999 18.6004C15.4659 18.6004 18.5999 15.4664 18.5999 11.6004C18.5999 7.7344 15.4659 4.60039 11.5999 4.60039ZM3.3999 11.6004C3.3999 7.07166 7.07117 3.40039 11.5999 3.40039C16.1286 3.40039 19.7999 7.07166 19.7999 11.6004C19.7999 13.6488 19.0488 15.5218 17.807 16.959L20.4242 19.5761C20.6585 19.8104 20.6585 20.1903 20.4242 20.4247C20.1898 20.659 19.81 20.659 19.5756 20.4247L16.9585 17.8075C15.5213 19.0493 13.6483 19.8004 11.5999 19.8004C7.07117 19.8004 3.3999 16.1291 3.3999 11.6004Z" fill="#232323"/>
</svg>
