<svg width="24" height="24" viewBox="0 0 24 24" fill="none" xmlns="http://www.w3.org/2000/svg">
<path fill-rule="evenodd" clip-rule="evenodd" d="M10.6473 4.20021H13.3525C13.5256 4.2001 13.6764 4.2 13.8188 4.22275C14.3815 4.31259 14.8684 4.66351 15.1315 5.16887C15.1981 5.29678 15.2457 5.43989 15.3004 5.60415L15.3897 5.87207C15.4048 5.91742 15.4091 5.93026 15.4128 5.94037C15.5529 6.32766 15.9161 6.58947 16.3278 6.59991C16.3386 6.60018 16.3519 6.60023 16.3999 6.60023H18.7999C19.1313 6.60023 19.3999 6.86886 19.3999 7.20023C19.3999 7.5316 19.1313 7.80023 18.7999 7.80023H5.19985C4.86848 7.80023 4.59985 7.5316 4.59985 7.20023C4.59985 6.86886 4.86848 6.60023 5.19985 6.60023H7.59992C7.64796 6.60023 7.66121 6.60018 7.67204 6.59991C8.08376 6.58947 8.44698 6.32768 8.58707 5.94039C8.59076 5.93021 8.59499 5.91764 8.61018 5.87207L8.69947 5.60417C8.7541 5.43991 8.80171 5.29678 8.86832 5.16887C9.13148 4.66351 9.61836 4.31259 10.181 4.22275C10.3234 4.2 10.4742 4.2001 10.6473 4.20021ZM9.60637 6.60023C9.64758 6.51941 9.6841 6.43543 9.71551 6.34858C9.72505 6.32221 9.73441 6.29413 9.74643 6.25806L9.82627 6.01853C9.89921 5.79973 9.916 5.7551 9.93266 5.72311C10.0204 5.55465 10.1827 5.43768 10.3702 5.40773C10.4058 5.40204 10.4535 5.40023 10.6841 5.40023H13.3157C13.5464 5.40023 13.594 5.40204 13.6296 5.40773C13.8172 5.43768 13.9795 5.55466 14.0672 5.72311C14.0838 5.7551 14.1006 5.79972 14.1736 6.01853L14.2534 6.25792L14.2843 6.3486C14.3157 6.43544 14.3523 6.51941 14.3935 6.60023H9.60637Z" fill="#232323"/>
<path d="M7.13193 9.16031C7.10988 8.82968 6.82398 8.57951 6.49334 8.60155C6.16271 8.6236 5.91254 8.9095 5.93458 9.24014L6.30534 14.8015C6.37374 15.8277 6.42899 16.6566 6.55856 17.3071C6.69328 17.9833 6.92242 18.5482 7.3957 18.991C7.86897 19.4337 8.44781 19.6248 9.13153 19.7142C9.78915 19.8003 10.6199 19.8002 11.6483 19.8002H12.3515C13.3799 19.8002 14.2107 19.8003 14.8683 19.7142C15.552 19.6248 16.1309 19.4337 16.6041 18.991C17.0774 18.5482 17.3066 17.9833 17.4413 17.3071C17.5709 16.6566 17.6261 15.8277 17.6945 14.8015L18.0653 9.24014C18.0873 8.9095 17.8371 8.6236 17.5065 8.60155C17.1759 8.57951 16.89 8.82968 16.8679 9.16031L16.5 14.6796C16.4281 15.7579 16.3769 16.5081 16.2644 17.0726C16.1553 17.6202 16.0031 17.91 15.7843 18.1147C15.5656 18.3193 15.2663 18.452 14.7127 18.5244C14.1419 18.599 13.3899 18.6002 12.3093 18.6002H11.6906C10.6099 18.6002 9.8579 18.599 9.28718 18.5244C8.73357 18.452 8.43425 18.3193 8.21552 18.1147C7.99679 17.91 7.84452 17.6202 7.73544 17.0726C7.62299 16.5081 7.57176 15.7579 7.49988 14.6796L7.13193 9.16031Z" fill="#232323"/>
<path d="M9.94022 10.6032C10.27 10.5702 10.564 10.8108 10.5969 11.1405L10.9969 15.1405C11.0299 15.4703 10.7894 15.7643 10.4596 15.7972C10.1299 15.8302 9.83588 15.5897 9.80291 15.2599L9.4029 11.2599C9.36993 10.9302 9.6105 10.6362 9.94022 10.6032Z" fill="#232323"/>
<path d="M14.0596 10.6032C14.3894 10.6362 14.6299 10.9302 14.5969 11.2599L14.1969 15.2599C14.164 15.5897 13.87 15.8302 13.5402 15.7972C13.2105 15.7643 12.9699 15.4703 13.0029 15.1405L13.4029 11.1405C13.4359 10.8108 13.7299 10.5702 14.0596 10.6032Z" fill="#232323"/>
</svg>
