<svg width="24" height="24" viewBox="0 0 24 24" fill="none" xmlns="http://www.w3.org/2000/svg">
<path fill-rule="evenodd" clip-rule="evenodd" d="M12.0001 3.40039C9.90142 3.40039 8.2001 5.10171 8.2001 7.20039C8.2001 9.29907 9.90142 11.0004 12.0001 11.0004C14.0988 11.0004 15.8001 9.29907 15.8001 7.20039C15.8001 5.10171 14.0988 3.40039 12.0001 3.40039ZM9.4001 7.20039C9.4001 5.76445 10.5642 4.60039 12.0001 4.60039C13.436 4.60039 14.6001 5.76445 14.6001 7.20039C14.6001 8.63633 13.436 9.80039 12.0001 9.80039C10.5642 9.80039 9.4001 8.63633 9.4001 7.20039Z" fill="#232323"/>
<path d="M16.8001 5.00039C16.4687 5.00039 16.2001 5.26902 16.2001 5.60039C16.2001 5.93176 16.4687 6.20039 16.8001 6.20039C17.9013 6.20039 18.6001 6.92497 18.6001 7.60039C18.6001 8.27581 17.9013 9.00039 16.8001 9.00039C16.4687 9.00039 16.2001 9.26902 16.2001 9.60039C16.2001 9.93176 16.4687 10.2004 16.8001 10.2004C18.3499 10.2004 19.8001 9.13411 19.8001 7.60039C19.8001 6.06667 18.3499 5.00039 16.8001 5.00039Z" fill="#232323"/>
<path d="M7.8001 5.60039C7.8001 5.26902 7.53147 5.00039 7.2001 5.00039C5.65032 5.00039 4.2001 6.06667 4.2001 7.60039C4.2001 9.13411 5.65032 10.2004 7.2001 10.2004C7.53147 10.2004 7.8001 9.93176 7.8001 9.60039C7.8001 9.26902 7.53147 9.00039 7.2001 9.00039C6.09891 9.00039 5.4001 8.27581 5.4001 7.60039C5.4001 6.92497 6.09891 6.20039 7.2001 6.20039C7.53147 6.20039 7.8001 5.93176 7.8001 5.60039Z" fill="#232323"/>
<path fill-rule="evenodd" clip-rule="evenodd" d="M12.0001 12.2004C10.5727 12.2004 9.25326 12.585 8.27317 13.2384C7.29727 13.889 6.6001 14.8537 6.6001 16.0004C6.6001 17.1471 7.29727 18.1118 8.27317 18.7624C9.25326 19.4158 10.5727 19.8004 12.0001 19.8004C13.4275 19.8004 14.7469 19.4158 15.727 18.7624C16.7029 18.1118 17.4001 17.1471 17.4001 16.0004C17.4001 14.8537 16.7029 13.889 15.727 13.2384C14.7469 12.585 13.4275 12.2004 12.0001 12.2004ZM7.8001 16.0004C7.8001 15.3798 8.17745 14.7445 8.93881 14.2369C9.69597 13.7321 10.7765 13.4004 12.0001 13.4004C13.2236 13.4004 14.3042 13.7321 15.0614 14.2369C15.8228 14.7445 16.2001 15.3798 16.2001 16.0004C16.2001 16.621 15.8228 17.2563 15.0614 17.7639C14.3042 18.2687 13.2236 18.6004 12.0001 18.6004C10.7765 18.6004 9.69597 18.2687 8.93881 17.7639C8.17745 17.2563 7.8001 16.621 7.8001 16.0004Z" fill="#232323"/>
<path d="M17.814 13.4719C17.885 13.1482 18.2049 12.9433 18.5286 13.0143C19.2981 13.1831 19.9915 13.4879 20.5063 13.9091C21.0207 14.33 21.4001 14.9086 21.4001 15.6004C21.4001 16.2922 21.0207 16.8708 20.5063 17.2917C19.9915 17.7129 19.2981 18.0177 18.5286 18.1865C18.2049 18.2574 17.885 18.0526 17.814 17.7289C17.743 17.4052 17.9479 17.0853 18.2716 17.0143C18.9055 16.8753 19.4121 16.6365 19.7464 16.3629C20.0812 16.089 20.2001 15.8214 20.2001 15.6004C20.2001 15.3793 20.0812 15.1118 19.7464 14.8378C19.4121 14.5642 18.9055 14.3255 18.2716 14.1865C17.9479 14.1155 17.743 13.7955 17.814 13.4719Z" fill="#232323"/>
<path d="M5.47158 13.0143C5.79525 12.9433 6.11519 13.1482 6.18617 13.4719C6.25715 13.7955 6.0523 14.1155 5.72862 14.1865C5.09473 14.3255 4.58814 14.5642 4.2538 14.8378C3.919 15.1118 3.8001 15.3793 3.8001 15.6004C3.8001 15.8214 3.919 16.089 4.2538 16.3629C4.58814 16.6365 5.09473 16.8753 5.72862 17.0143C6.0523 17.0853 6.25715 17.4052 6.18617 17.7289C6.11519 18.0526 5.79525 18.2574 5.47158 18.1865C4.70207 18.0177 4.00866 17.7129 3.49385 17.2917C2.9795 16.8708 2.6001 16.2922 2.6001 15.6004C2.6001 14.9086 2.9795 14.33 3.49385 13.9091C4.00866 13.4879 4.70207 13.1831 5.47158 13.0143Z" fill="#232323"/>
</svg>
