<svg width="24" height="24" viewBox="0 0 24 24" fill="none" xmlns="http://www.w3.org/2000/svg">
<path fill-rule="evenodd" clip-rule="evenodd" d="M7.55845 3.79981C6.83968 3.79978 6.24029 3.79976 5.76447 3.86374C5.26223 3.93126 4.80879 4.0798 4.44442 4.44417C4.08004 4.80855 3.9315 5.26199 3.86398 5.76422C3.80001 6.24004 3.80003 6.83941 3.80005 7.55819V7.64141C3.80003 8.36018 3.80001 8.95957 3.86398 9.43539C3.9315 9.93763 4.08004 10.3911 4.44442 10.7554C4.80879 11.1198 5.26223 11.2684 5.76447 11.3359C6.24029 11.3999 6.83966 11.3998 7.55843 11.3998H7.64165C8.36042 11.3998 8.95981 11.3999 9.43563 11.3359C9.93787 11.2684 10.3913 11.1198 10.7557 10.7554C11.1201 10.3911 11.2686 9.93763 11.3361 9.43539C11.4001 8.95957 11.4001 8.3602 11.4001 7.64143V7.55821C11.4001 6.83944 11.4001 6.24004 11.3361 5.76422C11.2686 5.26199 11.1201 4.80855 10.7557 4.44417C10.3913 4.0798 9.93787 3.93126 9.43563 3.86374C8.95981 3.79976 8.36045 3.79978 7.64167 3.79981H7.55845ZM5.29294 5.2927C5.3972 5.18845 5.5552 5.10267 5.92436 5.05304C6.31079 5.00108 6.82884 4.99981 7.60005 4.99981C8.37126 4.99981 8.88931 5.00108 9.27574 5.05304C9.64491 5.10267 9.80291 5.18845 9.90716 5.2927C10.0114 5.39695 10.0972 5.55495 10.1468 5.92412C10.1988 6.31055 10.2001 6.8286 10.2001 7.59981C10.2001 8.37102 10.1988 8.88906 10.1468 9.27549C10.0972 9.64466 10.0114 9.80266 9.90716 9.90691C9.80291 10.0112 9.64491 10.0969 9.27574 10.1466C8.88931 10.1985 8.37126 10.1998 7.60005 10.1998C6.82884 10.1998 6.31079 10.1985 5.92436 10.1466C5.5552 10.0969 5.3972 10.0112 5.29294 9.90691C5.18869 9.80266 5.10291 9.64466 5.05328 9.27549C5.00133 8.88906 5.00005 8.37102 5.00005 7.59981C5.00005 6.8286 5.00133 6.31055 5.05328 5.92412C5.10291 5.55495 5.18869 5.39695 5.29294 5.2927Z" fill="#232323"/>
<path fill-rule="evenodd" clip-rule="evenodd" d="M16.3585 12.5998C15.6397 12.5998 15.0403 12.5998 14.5645 12.6637C14.0622 12.7313 13.6088 12.8798 13.2444 13.2442C12.88 13.6085 12.7315 14.062 12.664 14.5642C12.6 15.04 12.6 15.6394 12.6001 16.3582V16.4414C12.6 17.1602 12.6 17.7596 12.664 18.2354C12.7315 18.7376 12.88 19.1911 13.2444 19.5554C13.6088 19.9198 14.0622 20.0684 14.5645 20.1359C15.0403 20.1999 15.6396 20.1998 16.3584 20.1998H16.4416C17.1604 20.1998 17.7598 20.1999 18.2356 20.1359C18.7379 20.0684 19.1913 19.9198 19.5557 19.5554C19.9201 19.1911 20.0686 18.7376 20.1361 18.2354C20.2001 17.7596 20.2001 17.1602 20.2001 16.4415V16.3582C20.2001 15.6395 20.2001 15.04 20.1361 14.5642C20.0686 14.062 19.9201 13.6085 19.5557 13.2442C19.1913 12.8798 18.7379 12.7313 18.2356 12.6637C17.7598 12.5998 17.1604 12.5998 16.4417 12.5998H16.3585ZM14.0929 14.0927C14.1972 13.9884 14.3552 13.9027 14.7244 13.853C15.1108 13.8011 15.6288 13.7998 16.4001 13.7998C17.1713 13.7998 17.6893 13.8011 18.0757 13.853C18.4449 13.9027 18.6029 13.9884 18.7072 14.0927C18.8114 14.197 18.8972 14.355 18.9468 14.7241C18.9988 15.1105 19.0001 15.6286 19.0001 16.3998C19.0001 17.171 18.9988 17.6891 18.9468 18.0755C18.8972 18.4447 18.8114 18.6027 18.7072 18.7069C18.6029 18.8112 18.4449 18.8969 18.0757 18.9466C17.6893 18.9985 17.1713 18.9998 16.4001 18.9998C15.6288 18.9998 15.1108 18.9985 14.7244 18.9466C14.3552 18.8969 14.1972 18.8112 14.0929 18.7069C13.9887 18.6027 13.9029 18.4447 13.8533 18.0755C13.8013 17.6891 13.8001 17.171 13.8001 16.3998C13.8001 15.6286 13.8013 15.1105 13.8533 14.7241C13.9029 14.355 13.9887 14.197 14.0929 14.0927Z" fill="#232323"/>
<path fill-rule="evenodd" clip-rule="evenodd" d="M7.55845 12.5998H7.64165C8.36043 12.5998 8.95981 12.5998 9.43563 12.6637C9.93787 12.7313 10.3913 12.8798 10.7557 13.2442C11.1201 13.6085 11.2686 14.062 11.3361 14.5642C11.4001 15.04 11.4001 15.6394 11.4001 16.3582V16.4414C11.4001 17.1602 11.4001 17.7596 11.3361 18.2354C11.2686 18.7376 11.1201 19.1911 10.7557 19.5554C10.3913 19.9198 9.93787 20.0684 9.43563 20.1359C8.95982 20.1999 8.36046 20.1998 7.6417 20.1998H7.55846C6.83969 20.1998 6.24028 20.1999 5.76447 20.1359C5.26223 20.0684 4.80879 19.9198 4.44442 19.5554C4.08004 19.1911 3.9315 18.7376 3.86398 18.2354C3.80001 17.7596 3.80003 17.1602 3.80005 16.4414V16.3582C3.80003 15.6394 3.80001 15.04 3.86398 14.5642C3.9315 14.062 4.08004 13.6085 4.44442 13.2442C4.80879 12.8798 5.26223 12.7313 5.76447 12.6637C6.24029 12.5998 6.83967 12.5998 7.55845 12.5998ZM5.92436 13.853C5.5552 13.9027 5.3972 13.9884 5.29294 14.0927C5.18869 14.197 5.10291 14.355 5.05328 14.7241C5.00133 15.1105 5.00005 15.6286 5.00005 16.3998C5.00005 17.171 5.00133 17.6891 5.05328 18.0755C5.10291 18.4447 5.18869 18.6027 5.29294 18.7069C5.3972 18.8112 5.5552 18.8969 5.92436 18.9466C6.31079 18.9985 6.82884 18.9998 7.60005 18.9998C8.37126 18.9998 8.88931 18.9985 9.27574 18.9466C9.64491 18.8969 9.80291 18.8112 9.90716 18.7069C10.0114 18.6027 10.0972 18.4447 10.1468 18.0755C10.1988 17.6891 10.2001 17.171 10.2001 16.3998C10.2001 15.6286 10.1988 15.1105 10.1468 14.7241C10.0972 14.355 10.0114 14.197 9.90716 14.0927C9.80291 13.9884 9.64491 13.9027 9.27574 13.853C8.88931 13.8011 8.37126 13.7998 7.60005 13.7998C6.82884 13.7998 6.31079 13.8011 5.92436 13.853Z" fill="#232323"/>
<path fill-rule="evenodd" clip-rule="evenodd" d="M16.3585 3.79981C15.6397 3.79978 15.0403 3.79976 14.5645 3.86374C14.0622 3.93126 13.6088 4.0798 13.2444 4.44417C12.88 4.80855 12.7315 5.26199 12.664 5.76422C12.6 6.24005 12.6 6.83942 12.6001 7.55821V7.64141C12.6 8.36019 12.6 8.95957 12.664 9.43539C12.7315 9.93763 12.88 10.3911 13.2444 10.7554C13.6088 11.1198 14.0622 11.2684 14.5645 11.3359C15.0403 11.3999 15.6397 11.3998 16.3584 11.3998H16.4416C17.1604 11.3998 17.7598 11.3999 18.2356 11.3359C18.7379 11.2684 19.1913 11.1198 19.5557 10.7554C19.9201 10.3911 20.0686 9.93763 20.1361 9.43539C20.2001 8.95957 20.2001 8.3602 20.2001 7.64143V7.55821C20.2001 6.83944 20.2001 6.24004 20.1361 5.76422C20.0686 5.26199 19.9201 4.80855 19.5557 4.44417C19.1913 4.0798 18.7379 3.93126 18.2356 3.86374C17.7598 3.79976 17.1604 3.79978 16.4417 3.79981H16.3585ZM14.0929 5.2927C14.1972 5.18845 14.3552 5.10267 14.7244 5.05304C15.1108 5.00108 15.6288 4.99981 16.4001 4.99981C17.1713 4.99981 17.6893 5.00108 18.0757 5.05304C18.4449 5.10267 18.6029 5.18845 18.7072 5.2927C18.8114 5.39695 18.8972 5.55495 18.9468 5.92412C18.9988 6.31055 19.0001 6.8286 19.0001 7.59981C19.0001 8.37102 18.9988 8.88906 18.9468 9.27549C18.8972 9.64466 18.8114 9.80266 18.7072 9.90691C18.6029 10.0112 18.4449 10.0969 18.0757 10.1466C17.6893 10.1985 17.1713 10.1998 16.4001 10.1998C15.6288 10.1998 15.1108 10.1985 14.7244 10.1466C14.3552 10.0969 14.1972 10.0112 14.0929 9.90691C13.9887 9.80266 13.9029 9.64466 13.8533 9.27549C13.8013 8.88906 13.8001 8.37102 13.8001 7.59981C13.8001 6.8286 13.8013 6.31055 13.8533 5.92412C13.9029 5.55495 13.9887 5.39695 14.0929 5.2927Z" fill="#232323"/>
</svg>
