<svg width="24" height="24" viewBox="0 0 24 24" fill="none" xmlns="http://www.w3.org/2000/svg">
<path d="M4 7.9998C4 6.49131 4 5.73706 5.17157 5.26843C6.34315 4.7998 8.22876 4.7998 12 4.7998C15.7712 4.7998 17.6569 4.7998 18.8284 5.26843C20 5.73706 20 6.49131 20 7.9998C20 9.5083 20 10.2625 18.8284 10.7312C17.6569 11.1998 15.7712 11.1998 12 11.1998C8.22876 11.1998 6.34315 11.1998 5.17157 10.7312C4 10.2625 4 9.5083 4 7.9998Z" stroke="#232323" stroke-width="1.5"/>
<path d="M4 16.7998C4 15.2913 4 14.5371 5.17157 14.0684C6.34315 13.5998 8.22876 13.5998 12 13.5998C15.7712 13.5998 17.6569 13.5998 18.8284 14.0684C20 14.5371 20 15.2913 20 16.7998C20 18.3083 20 19.0625 18.8284 19.5312C17.6569 19.9998 15.7712 19.9998 12 19.9998C8.22876 19.9998 6.34315 19.9998 5.17157 19.5312C4 19.0625 4 18.3083 4 16.7998Z" stroke="#232323" stroke-width="1.5"/>
</svg>
