<svg width="32" height="32" viewBox="0 0 32 32" fill="none" xmlns="http://www.w3.org/2000/svg">
<path d="M25.6938 7.10667C23.9205 6.28 22.0005 5.68 20.0005 5.33334C19.9829 5.33278 19.9655 5.33607 19.9494 5.34298C19.9333 5.34989 19.9188 5.36025 19.9071 5.37334C19.6671 5.81334 19.3871 6.38667 19.2005 6.82667C17.0791 6.50667 14.9218 6.50667 12.8005 6.82667C12.6138 6.37334 12.3338 5.81334 12.0805 5.37334C12.0671 5.34667 12.0271 5.33334 11.9871 5.33334C9.98715 5.68 8.08048 6.28 6.29381 7.10667C6.28048 7.10667 6.26715 7.12 6.25382 7.13334C2.62715 12.56 1.62715 17.84 2.12048 23.0667C2.12048 23.0933 2.13382 23.12 2.16048 23.1333C4.56048 24.8933 6.86715 25.96 9.14715 26.6667C9.18715 26.68 9.22715 26.6667 9.24048 26.64C9.77381 25.9067 10.2538 25.1333 10.6671 24.32C10.6938 24.2667 10.6671 24.2133 10.6138 24.2C9.85382 23.9067 9.13381 23.56 8.42715 23.16C8.37382 23.1333 8.37381 23.0533 8.41382 23.0133C8.56048 22.9067 8.70715 22.7867 8.85381 22.68C8.88048 22.6533 8.92048 22.6533 8.94715 22.6667C13.5338 24.76 18.4805 24.76 23.0138 22.6667C23.0405 22.6533 23.0805 22.6533 23.1071 22.68C23.2538 22.8 23.4005 22.9067 23.5471 23.0267C23.6005 23.0667 23.6005 23.1467 23.5338 23.1733C22.8405 23.5867 22.1071 23.92 21.3471 24.2133C21.2938 24.2267 21.2805 24.2933 21.2938 24.3333C21.7205 25.1467 22.2005 25.92 22.7205 26.6533C22.7605 26.6667 22.8005 26.68 22.8405 26.6667C25.1338 25.96 27.4405 24.8933 29.8405 23.1333C29.8671 23.12 29.8805 23.0933 29.8805 23.0667C30.4671 17.0267 28.9071 11.7867 25.7471 7.13334C25.7338 7.12 25.7205 7.10667 25.6938 7.10667ZM11.3605 19.88C9.98715 19.88 8.84048 18.6133 8.84048 17.0533C8.84048 15.4933 9.96048 14.2267 11.3605 14.2267C12.7738 14.2267 13.8938 15.5067 13.8805 17.0533C13.8805 18.6133 12.7605 19.88 11.3605 19.88ZM20.6538 19.88C19.2805 19.88 18.1338 18.6133 18.1338 17.0533C18.1338 15.4933 19.2538 14.2267 20.6538 14.2267C22.0671 14.2267 23.1871 15.5067 23.1738 17.0533C23.1738 18.6133 22.0671 19.88 20.6538 19.88Z" fill="#3342CC"/>
</svg>
