<svg xmlns="http://www.w3.org/2000/svg" fill="none" viewBox="0 0 24 24" width='24px' height='24px'>
    <path
        d="M16 13.6a.8.8 0 1 0 0-1.6.8.8 0 0 0 0 1.6ZM16 16.8a.8.8 0 1 0 0-1.6.8.8 0 0 0 0 1.6ZM12.8 12.8a.8.8 0 1 1-1.6 0 .8.8 0 0 1 1.6 0ZM12.8 16a.8.8 0 1 1-1.6 0 .8.8 0 0 1 1.6 0ZM8 13.6A.8.8 0 1 0 8 12a.8.8 0 0 0 0 1.6ZM8 16.8a.8.8 0 1 0 0-1.6.8.8 0 0 0 0 1.6Z"
        fill="#232323" />
    <path fill-rule="evenodd" clip-rule="evenodd"
        d="M8 3.8a.6.6 0 0 1 .6.6v.61C9.13 5 9.713 5 10.355 5h3.29c.642 0 1.225 0 1.755.01V4.4a.6.6 0 1 1 1.2 0v.661c.208.016.405.036.591.061.938.126 1.697.392 2.296.99.599.6.864 1.359.99 2.297.123.91.123 2.075.123 3.546v1.69c0 1.47 0 2.635-.123 3.546-.126.938-.391 1.697-.99 2.296-.599.599-1.358.864-2.296.99-.911.123-2.076.123-3.546.123h-3.29c-1.47 0-2.635 0-3.546-.123-.938-.126-1.697-.392-2.296-.99-.599-.599-.864-1.358-.99-2.296-.123-.911-.123-2.076-.123-3.546v-1.69c0-1.47 0-2.635.122-3.546.127-.938.392-1.698.99-2.296.6-.599 1.359-.865 2.297-.99.186-.026.383-.046.59-.062V4.4a.6.6 0 0 1 .6-.6ZM6.969 6.312c-.805.108-1.269.31-1.608.65-.338.338-.541.802-.65 1.606-.018.137-.033.28-.046.432h14.67a8.96 8.96 0 0 0-.047-.432c-.108-.804-.311-1.268-.65-1.607-.338-.338-.802-.541-1.607-.65-.822-.11-1.906-.111-3.431-.111h-3.2c-1.526 0-2.61.001-3.431.112ZM4.599 12c0-.683.001-1.278.011-1.8h14.78c.01.522.01 1.117.01 1.8v1.6c0 1.525-.001 2.609-.112 3.431-.108.805-.311 1.269-.65 1.607-.338.339-.802.542-1.607.65-.822.11-1.906.112-3.431.112h-3.2c-1.526 0-2.61-.002-3.431-.112-.805-.108-1.269-.311-1.608-.65-.338-.338-.541-.802-.65-1.607-.11-.822-.111-1.906-.111-3.431V12Z"
        fill="#232323" />
</svg>