<svg width="24" height="24" viewBox="0 0 24 24" fill="none" xmlns="http://www.w3.org/2000/svg">
<g id="Icons">
<path id="Vector" d="M10.4241 9.57564C10.1898 9.34132 9.80993 9.34132 9.57561 9.57564C9.3413 9.80995 9.3413 10.1899 9.57561 10.4242L11.1514 11.9999L9.57563 13.5756C9.34132 13.81 9.34132 14.1899 9.57563 14.4242C9.80995 14.6585 10.1898 14.6585 10.4242 14.4242L11.9999 12.8484L13.5756 14.4241C13.8099 14.6585 14.1898 14.6585 14.4241 14.4241C14.6584 14.1898 14.6584 13.8099 14.4241 13.5756L12.8484 11.9999L14.4241 10.4242C14.6585 10.1899 14.6585 9.80997 14.4241 9.57565C14.1898 9.34134 13.8099 9.34134 13.5756 9.57565L11.9999 11.1514L10.4241 9.57564Z" fill="#FCFCFC"/>
</g>
</svg>
