<svg width="24" height="24" viewBox="0 0 24 24" fill="none" xmlns="http://www.w3.org/2000/svg">
<path fill-rule="evenodd" clip-rule="evenodd" d="M10.6471 4.20021H13.3523C13.5254 4.2001 13.6762 4.2 13.8186 4.22275C14.3812 4.31259 14.8681 4.66351 15.1313 5.16887C15.1979 5.29678 15.2455 5.43989 15.3001 5.60415L15.3894 5.87207C15.4045 5.91742 15.4089 5.93026 15.4125 5.94037C15.5526 6.32766 15.9158 6.58947 16.3276 6.59991C16.3384 6.60018 16.3516 6.60023 16.3997 6.60023H18.7997C19.131 6.60023 19.3997 6.86886 19.3997 7.20023C19.3997 7.5316 19.131 7.80023 18.7997 7.80023H5.19961C4.86824 7.80023 4.59961 7.5316 4.59961 7.20023C4.59961 6.86886 4.86824 6.60023 5.19961 6.60023H7.59968C7.64771 6.60023 7.66097 6.60018 7.6718 6.59991C8.08352 6.58947 8.44673 6.32768 8.58683 5.94039C8.59051 5.93021 8.59475 5.91764 8.60994 5.87207L8.69922 5.60417C8.75386 5.43991 8.80147 5.29678 8.86808 5.16887C9.13123 4.66351 9.61811 4.31259 10.1808 4.22275C10.3232 4.2 10.474 4.2001 10.6471 4.20021ZM9.60613 6.60023C9.64734 6.51941 9.68385 6.43543 9.71527 6.34858C9.72481 6.32221 9.73417 6.29413 9.74619 6.25806L9.82603 6.01853C9.89897 5.79973 9.91576 5.7551 9.93242 5.72311C10.0201 5.55465 10.1824 5.43768 10.37 5.40773C10.4056 5.40204 10.4532 5.40023 10.6839 5.40023H13.3155C13.5461 5.40023 13.5938 5.40204 13.6294 5.40773C13.8169 5.43768 13.9792 5.55466 14.0669 5.72311C14.0836 5.7551 14.1004 5.79972 14.1733 6.01853L14.2531 6.25792L14.2841 6.3486C14.3155 6.43544 14.352 6.51941 14.3932 6.60023H9.60613Z" fill="currentColor"/>
<path d="M7.13168 9.16031C7.10964 8.82968 6.82374 8.57951 6.4931 8.60155C6.16246 8.6236 5.9123 8.9095 5.93434 9.24014L6.3051 14.8015C6.37349 15.8277 6.42874 16.6566 6.55832 17.3071C6.69304 17.9833 6.92218 18.5482 7.39545 18.991C7.86873 19.4337 8.44757 19.6248 9.13129 19.7142C9.78891 19.8003 10.6196 19.8002 11.6481 19.8002H12.3512C13.3797 19.8002 14.2104 19.8003 14.8681 19.7142C15.5518 19.6248 16.1306 19.4337 16.6039 18.991C17.0772 18.5482 17.3063 17.9833 17.441 17.3071C17.5706 16.6566 17.6259 15.8277 17.6943 14.8015L18.065 9.24014C18.0871 8.9095 17.8369 8.6236 17.5063 8.60155C17.1756 8.57951 16.8897 8.82968 16.8677 9.16031L16.4997 14.6796C16.4278 15.7579 16.3766 16.5081 16.2642 17.0726C16.1551 17.6202 16.0028 17.91 15.7841 18.1147C15.5654 18.3193 15.266 18.452 14.7124 18.5244C14.1417 18.599 13.3897 18.6002 12.309 18.6002H11.6903C10.6097 18.6002 9.85765 18.599 9.28693 18.5244C8.73333 18.452 8.434 18.3193 8.21527 18.1147C7.99654 17.91 7.84428 17.6202 7.7352 17.0726C7.62274 16.5081 7.57152 15.7579 7.49963 14.6796L7.13168 9.16031Z" fill="currentColor"/>
<path d="M9.93998 10.6032C10.2697 10.5702 10.5637 10.8108 10.5967 11.1405L10.9967 15.1405C11.0297 15.4703 10.7891 15.7643 10.4594 15.7972C10.1297 15.8302 9.83563 15.5897 9.80266 15.2599L9.40266 11.2599C9.36969 10.9302 9.61025 10.6362 9.93998 10.6032Z" fill="currentColor"/>
<path d="M14.0594 10.6032C14.3891 10.6362 14.6297 10.9302 14.5967 11.2599L14.1967 15.2599C14.1637 15.5897 13.8697 15.8302 13.54 15.7972C13.2103 15.7643 12.9697 15.4703 13.0027 15.1405L13.4027 11.1405C13.4356 10.8108 13.7297 10.5702 14.0594 10.6032Z" fill="currentColor"/>
</svg>
