<svg width="99" height="27" fill="none" xmlns="http://www.w3.org/2000/svg">
    <path
        d="M5.712 1.052c1.272 0 2.568.012 3.888.036 1.344 0 2.652.036 3.924.108 1.296.048 2.496.132 3.6.252l-.288 3.96h-9c-.648 0-1.14.156-1.476.468-.336.312-.504.768-.504 1.368V26H.348V6.128c0-1.536.492-2.76 1.476-3.672.984-.936 2.28-1.404 3.888-1.404ZM.996 11.564h14.508v3.888H.996v-3.888Zm27-3.816c3 0 5.148.516 6.444 1.548 1.32 1.008 1.98 2.52 1.98 4.536.024 1.632-.384 2.856-1.224 3.672-.84.792-2.292 1.188-4.356 1.188h-9.936v-2.988h8.46c.816 0 1.332-.168 1.548-.504.24-.36.36-.852.36-1.476-.024-.84-.276-1.416-.756-1.728-.456-.336-1.236-.504-2.34-.504-.984 0-1.752.132-2.304.396-.552.264-.936.768-1.152 1.512-.216.744-.324 1.824-.324 3.24 0 1.488.132 2.64.396 3.456.264.792.708 1.344 1.332 1.656.648.312 1.536.468 2.664.468.816 0 1.824-.024 3.024-.072a63.168 63.168 0 0 0 3.672-.324l.504 3.276c-.696.336-1.488.6-2.376.792-.888.192-1.8.324-2.736.396-.936.096-1.836.144-2.7.144-2.256 0-4.08-.324-5.472-.972-1.368-.672-2.364-1.692-2.988-3.06-.6-1.368-.9-3.12-.9-5.256 0-2.328.312-4.176.936-5.544.624-1.368 1.608-2.352 2.952-2.952 1.344-.6 3.108-.9 5.292-.9Zm20.32 0c3 0 5.148.516 6.444 1.548 1.32 1.008 1.98 2.52 1.98 4.536.024 1.632-.384 2.856-1.224 3.672-.84.792-2.292 1.188-4.356 1.188h-9.936v-2.988h8.46c.816 0 1.332-.168 1.548-.504.24-.36.36-.852.36-1.476-.024-.84-.276-1.416-.756-1.728-.456-.336-1.236-.504-2.34-.504-.984 0-1.752.132-2.304.396-.552.264-.936.768-1.152 1.512-.216.744-.324 1.824-.324 3.24 0 1.488.132 2.64.396 3.456.264.792.708 1.344 1.332 1.656.648.312 1.536.468 2.664.468.816 0 1.824-.024 3.024-.072a63.168 63.168 0 0 0 3.672-.324l.504 3.276c-.696.336-1.488.6-2.376.792-.888.192-1.8.324-2.736.396-.936.096-1.836.144-2.7.144-2.256 0-4.08-.324-5.472-.972-1.368-.672-2.364-1.692-2.988-3.06-.6-1.368-.9-3.12-.9-5.256 0-2.328.312-4.176.936-5.544.624-1.368 1.608-2.352 2.952-2.952 1.344-.6 3.108-.9 5.292-.9Zm17.98 0c1.249 0 2.449.18 3.6.54a7.956 7.956 0 0 1 3.097 1.764l-.36 2.448-2.196-.648c-.648-.192-1.404-.288-2.268-.288-.744 0-1.344.132-1.8.396-.456.264-.792.78-1.008 1.548-.216.768-.324 1.908-.324 3.42 0 1.416.096 2.496.288 3.24.216.72.54 1.224.972 1.512.456.264 1.032.396 1.728.396.624 0 1.164-.06 1.62-.18a6.851 6.851 0 0 0 1.368-.612c.456-.288.972-.636 1.548-1.044l.396 2.628c-.72 1.008-1.656 1.86-2.808 2.556-1.152.672-2.568 1.008-4.248 1.008-2.28 0-3.912-.816-4.896-2.448-.96-1.632-1.44-3.972-1.44-7.02 0-2.376.24-4.224.72-5.544.504-1.344 1.26-2.292 2.268-2.844 1.008-.552 2.256-.828 3.744-.828ZM77.35.8V26h-4.212l-.54-3.276-.576-.396V10.664l.216-.468a69.873 69.873 0 0 1-.18-2.232 74.925 74.925 0 0 1-.036-2.34V.8h5.328Zm13.74 6.948c1.488 0 2.748.204 3.78.612a4.298 4.298 0 0 1 2.34 2.016c.552.936.828 2.232.828 3.888V26H93.79l-.756-3.852-.36-.54v-7.38c0-.84-.204-1.452-.612-1.836-.384-.384-1.128-.576-2.232-.576-.912 0-2.052.036-3.42.108-1.368.048-2.772.12-4.212.216l-.504-3.528a35.5 35.5 0 0 1 2.988-.432 80.398 80.398 0 0 1 3.384-.288 36.049 36.049 0 0 1 3.024-.144Zm4.752 7.308-.036 2.988-7.92.036c-.648 0-1.116.156-1.404.468-.264.312-.396.732-.396 1.26v.864c0 .6.168 1.068.504 1.404.336.312.876.468 1.62.468.624 0 1.296-.132 2.016-.396a9.975 9.975 0 0 0 2.196-1.116 9.185 9.185 0 0 0 1.908-1.692v2.304c-.216.36-.54.816-.972 1.368-.408.528-.936 1.056-1.584 1.584a9.828 9.828 0 0 1-2.268 1.296c-.864.36-1.848.54-2.952.54-1.08 0-2.052-.192-2.916-.576-.864-.384-1.548-.948-2.052-1.692s-.756-1.668-.756-2.772v-1.836c0-1.416.48-2.52 1.44-3.312.96-.792 2.28-1.188 3.96-1.188h9.612Z"
        fill="#121212" />
</svg>