<svg width="24" height="24" viewBox="0 0 24 24" fill="none" xmlns="http://www.w3.org/2000/svg">
<g id="Icons">
<path id="Vector" fill-rule="evenodd" clip-rule="evenodd" d="M14.2057 4.49706C15.6686 3.03418 18.0404 3.03418 19.5032 4.49706C20.9661 5.95994 20.9661 8.33173 19.5032 9.79461L11.915 17.3829C11.4815 17.8164 11.2263 18.0716 10.9423 18.2931C10.6077 18.5541 10.2456 18.7779 9.86252 18.9605C9.53748 19.1154 9.19506 19.2295 8.61338 19.4234L5.94848 20.3117L5.30682 20.5256C4.78637 20.699 4.21257 20.5636 3.82465 20.1757C3.43673 19.7877 3.30127 19.2139 3.47476 18.6935L4.57693 15.387C4.77081 14.8053 4.88494 14.4628 5.03985 14.1378C5.22243 13.7547 5.44621 13.3926 5.70722 13.058C5.92867 12.774 6.1839 12.5188 6.61748 12.0853L14.2057 4.49706ZM5.9208 19.056L8.19401 18.2982C8.82691 18.0873 9.09581 17.9966 9.34626 17.8772C9.65069 17.7321 9.93841 17.5543 10.2043 17.3469C10.4231 17.1762 10.6245 16.9763 11.0962 16.5046L17.1518 10.449C16.5209 10.2265 15.7081 9.814 14.9472 9.05311C14.1863 8.29221 13.7738 7.47941 13.5513 6.8485L7.49573 12.9041C7.024 13.3758 6.82406 13.5772 6.65343 13.796C6.44602 14.0619 6.2682 14.3496 6.12311 14.6541C6.00376 14.9045 5.91303 15.1734 5.70207 15.8063L4.94433 18.0795L5.9208 19.056ZM14.5247 5.87514C14.552 6.01511 14.5983 6.20538 14.6754 6.4278C14.8492 6.92856 15.1774 7.58621 15.7957 8.20458C16.4141 8.82295 17.0717 9.15113 17.5725 9.32486C17.7949 9.40203 17.9852 9.44827 18.1252 9.47563L18.6547 8.94608C19.649 7.95183 19.649 6.33984 18.6547 5.34559C17.6605 4.35134 16.0485 4.35134 15.0542 5.34559L14.5247 5.87514Z" fill="currentColor"/>
</g>
</svg>
